<svg width="42" height="40" viewBox="0 0 42 40" fill="none" xmlns="http://www.w3.org/2000/svg">
<path d="M41.2005 22.1557L29.5006 14.6402L38.1811 12.9295C38.3474 12.8959 38.4935 12.8006 38.5881 12.6639C38.6826 12.5272 38.7181 12.3601 38.6869 12.1984C38.4038 10.8495 38.1245 9.53359 37.8452 8.21033C37.8097 8.04952 37.7112 7.90829 37.5705 7.81628C37.4297 7.72427 37.2577 7.68863 37.0904 7.71685L23.3525 10.4109C25.0357 7.95445 26.6322 5.61133 28.2589 3.24628C28.3064 3.17746 28.3394 3.10022 28.356 3.019C28.3726 2.93778 28.3725 2.85419 28.3557 2.77301C28.3388 2.69184 28.3056 2.61468 28.2579 2.54598C28.2102 2.47727 28.149 2.41836 28.0777 2.37264L24.5413 0.106288C24.3969 0.0141174 24.2208 -0.0191546 24.0512 0.0136967C23.8816 0.046548 23.7322 0.14287 23.6355 0.281748C20.971 4.18207 18.3253 8.04218 15.6079 12.0229C14.9549 8.9012 14.3284 5.92204 13.6981 2.92461C13.6618 2.76447 13.563 2.62412 13.4223 2.53286C13.2817 2.44159 13.1101 2.40645 12.9433 2.43478L8.80683 3.22801C8.64126 3.26325 8.49602 3.35881 8.40118 3.4949C8.30634 3.63098 8.26916 3.79718 8.29732 3.95909C9.26351 8.58318 10.2184 13.1415 11.1996 17.8277L3.80607 13.0757C3.73501 13.0297 3.65526 12.9977 3.5714 12.9816C3.48755 12.9655 3.40124 12.9656 3.31743 12.9819C3.23361 12.9982 3.15395 13.0304 3.08301 13.0766C3.01207 13.1228 2.95125 13.1821 2.90404 13.2511C2.12657 14.3807 1.36041 15.5065 0.575388 16.647C0.524514 16.7173 0.488953 16.7969 0.470875 16.881C0.452797 16.965 0.45258 17.0518 0.470236 17.1359C0.487892 17.22 0.523053 17.2998 0.573574 17.3704C0.624095 17.4409 0.68892 17.5007 0.764096 17.5462L12.464 25.0654L4.18349 26.703C4.01697 26.7366 3.87057 26.8318 3.77541 26.9683C3.68025 27.1049 3.64386 27.272 3.67398 27.4341C3.95704 28.7793 4.22878 30.0879 4.50429 31.4185C4.53983 31.5793 4.6383 31.7206 4.77904 31.8126C4.91978 31.9046 5.09184 31.9402 5.25912 31.912L18.5479 29.3093L14.0189 35.922C13.9709 35.9907 13.9375 36.0679 13.9206 36.1492C13.9037 36.2305 13.9037 36.3142 13.9206 36.3956C13.9374 36.4769 13.9708 36.5541 14.0188 36.6228C14.0668 36.6915 14.1284 36.7502 14.2001 36.7956L17.7025 39.0474C17.8469 39.1395 18.0231 39.1728 18.1927 39.1399C18.3623 39.1071 18.5116 39.0108 18.6083 38.8719C21.2276 35.0922 23.8091 31.3271 26.451 27.467L28.3381 36.4813C28.3737 36.6421 28.4721 36.7833 28.6129 36.8753C28.7536 36.9673 28.9257 37.003 29.0929 36.9747L33.2219 36.1559C33.3889 36.1232 33.5359 36.0282 33.6312 35.8914C33.7265 35.7547 33.7625 35.5871 33.7314 35.4248C32.7954 30.9397 31.8745 26.5203 30.9272 21.9839L38.1434 26.6153C38.215 26.6613 38.2952 26.6931 38.3795 26.7089C38.4638 26.7248 38.5505 26.7244 38.6347 26.7078C38.7188 26.6911 38.7987 26.6586 38.8698 26.612C38.941 26.5654 39.0019 26.5056 39.0492 26.4362L41.3816 23.0294C41.4756 22.8898 41.5093 22.7201 41.4754 22.5567C41.4415 22.3933 41.3428 22.2493 41.2005 22.1557ZM26.6624 19.2314C26.4953 19.4838 26.3005 19.7179 26.0812 19.9296C25.8057 20.1928 25.5339 20.4596 25.2584 20.7191C24.6545 21.3113 24.0431 21.8962 23.4317 22.4884C22.6769 23.2194 21.922 23.9505 21.1672 24.6816C21.1068 24.7474 21.0427 24.8022 20.9408 24.8936C20.6502 24.5975 20.3671 24.3088 20.0803 24.0273L18.5027 22.4518C17.8912 21.8669 17.2874 21.2748 16.6835 20.6826C16.3816 20.3975 16.0834 20.1087 15.7853 19.8163C15.4695 19.5081 15.2222 19.1406 15.0586 18.7364C14.895 18.3321 14.8186 17.8997 14.8342 17.4658C14.8495 16.6494 15.1777 15.8676 15.7551 15.2726C15.8959 15.1289 16.0501 14.998 16.2155 14.8815C16.5311 14.6625 16.8854 14.5015 17.261 14.4062C17.6302 14.3121 18.0116 14.2702 18.3932 14.282C19.0495 14.314 19.6852 14.5146 20.235 14.8632C20.397 14.9575 20.5521 15.0626 20.6992 15.1775C20.9672 15.3896 20.9483 15.3786 21.2314 15.1775C21.7774 14.746 22.426 14.4532 23.1185 14.3258C23.1372 14.3225 23.1564 14.3225 23.1751 14.3258C23.8548 14.227 24.5496 14.321 25.1754 14.5963C25.4344 14.7023 25.677 14.8425 25.8962 15.013C26.0014 15.0918 26.0998 15.1786 26.1906 15.2726C26.5738 15.6636 26.8444 16.1451 26.9756 16.6689C27.0174 16.8329 27.0501 16.9988 27.0738 17.1661C27.1955 17.8777 27.0495 18.6079 26.6624 19.2241V19.2314Z" fill="#074D43"/>
</svg>
