<svg width="120" height="49" viewBox="0 0 120 49" fill="none" xmlns="http://www.w3.org/2000/svg">
<path d="M119.66 28.0627L105.826 18.8787L116.09 16.7882C116.286 16.7472 116.459 16.6307 116.571 16.4636C116.683 16.2966 116.725 16.0924 116.688 15.8948C116.353 14.2465 116.023 12.6384 115.693 11.0214C115.651 10.8249 115.534 10.6523 115.368 10.5398C115.201 10.4274 114.998 10.3839 114.8 10.4183L98.5563 13.7105C100.547 10.7087 102.434 7.8454 104.358 4.95531C104.414 4.8712 104.453 4.77682 104.473 4.67757C104.492 4.57832 104.492 4.47617 104.472 4.37697C104.452 4.27778 104.413 4.18349 104.357 4.09953C104.3 4.01557 104.228 3.94359 104.143 3.88772L99.962 1.11823C99.7913 1.0056 99.583 0.964942 99.3825 1.00509C99.182 1.04523 99.0053 1.16294 98.891 1.33265C95.7404 6.09884 92.6122 10.8159 89.3991 15.6804C88.6271 11.8656 87.8863 8.22509 87.141 4.56222C87.098 4.36653 86.9812 4.19503 86.8149 4.0835C86.6486 3.97197 86.4457 3.92904 86.2485 3.96366L81.3575 4.93298C81.1618 4.97605 80.99 5.09282 80.8779 5.25912C80.7658 5.42542 80.7218 5.62851 80.7551 5.82636C81.8975 11.477 83.0265 17.0472 84.1868 22.7738L75.4446 16.9668C75.3606 16.9106 75.2663 16.8715 75.1672 16.8519C75.068 16.8322 74.966 16.8323 74.8669 16.8523C74.7678 16.8722 74.6736 16.9115 74.5897 16.968C74.5058 17.0244 74.4339 17.0969 74.3781 17.1813C73.4588 18.5615 72.5529 19.9373 71.6247 21.331C71.5645 21.4169 71.5225 21.5142 71.5011 21.6169C71.4797 21.7196 71.4795 21.8256 71.5003 21.9284C71.5212 22.0312 71.5628 22.1287 71.6225 22.2149C71.6823 22.3011 71.7589 22.3743 71.8478 22.4299L85.6818 31.6183L75.8909 33.6195C75.694 33.6605 75.5209 33.7768 75.4084 33.9437C75.2959 34.1105 75.2528 34.3148 75.2884 34.5129C75.6231 36.1567 75.9444 37.7558 76.2702 39.3818C76.3122 39.5783 76.4287 39.7509 76.5951 39.8633C76.7615 39.9758 76.9649 40.0193 77.1627 39.9848L92.8754 36.8044L87.5204 44.885C87.4636 44.969 87.4241 45.0633 87.4041 45.1627C87.3841 45.2621 87.3841 45.3644 87.404 45.4638C87.424 45.5631 87.4635 45.6575 87.5202 45.7414C87.577 45.8254 87.6498 45.8972 87.7346 45.9526L91.8758 48.7043C92.0466 48.8169 92.2548 48.8575 92.4554 48.8174C92.6559 48.7773 92.8325 48.6595 92.9468 48.4898C96.0439 43.8711 99.0963 39.2701 102.22 34.5531L104.451 45.5685C104.493 45.765 104.61 45.9376 104.776 46.05C104.943 46.1624 105.146 46.206 105.344 46.1715L110.226 45.1709C110.423 45.1309 110.597 45.0149 110.71 44.8477C110.823 44.6806 110.865 44.4758 110.828 44.2775C109.722 38.7966 108.633 33.3961 107.513 27.8527L116.045 33.5123C116.13 33.5684 116.225 33.6073 116.324 33.6267C116.424 33.6461 116.527 33.6456 116.626 33.6253C116.725 33.6049 116.82 33.5651 116.904 33.5082C116.988 33.4513 117.06 33.3783 117.116 33.2934L119.874 29.1302C119.985 28.9597 120.025 28.7523 119.985 28.5526C119.945 28.353 119.828 28.177 119.66 28.0627ZM102.47 24.4891C102.272 24.7976 102.042 25.0837 101.783 25.3423C101.457 25.6639 101.136 25.99 100.81 26.3072C100.096 27.0308 99.373 27.7455 98.65 28.4691C97.7575 29.3625 96.865 30.2559 95.9725 31.1493C95.9011 31.2297 95.8252 31.2967 95.7047 31.4084C95.3611 31.0465 95.0264 30.6937 94.6873 30.3497L92.8219 28.4245C92.099 27.7098 91.3849 26.9861 90.6709 26.2625C90.3139 25.9141 89.9614 25.5612 89.6088 25.2038C89.2355 24.8273 88.943 24.3782 88.7496 23.8842C88.5562 23.3902 88.4659 22.8618 88.4843 22.3316C88.5024 21.3339 88.8905 20.3786 89.5731 19.6515C89.7397 19.4759 89.9219 19.3159 90.1176 19.1735C90.4907 18.906 90.9097 18.7092 91.3537 18.5928C91.7903 18.4777 92.2412 18.4265 92.6925 18.4409C93.4685 18.48 94.2201 18.7252 94.8702 19.1512C95.0618 19.2665 95.2452 19.3948 95.4191 19.5353C95.736 19.7944 95.7136 19.781 96.0483 19.5353C96.694 19.0079 97.4609 18.6502 98.2796 18.4945C98.3017 18.4904 98.3244 18.4904 98.3466 18.4945C99.1503 18.3738 99.9718 18.4886 100.712 18.8251C101.018 18.9545 101.305 19.1259 101.564 19.3343C101.688 19.4305 101.805 19.5366 101.912 19.6515C102.365 20.1293 102.685 20.7176 102.84 21.3578C102.89 21.5581 102.928 21.7609 102.956 21.9653C103.1 22.8349 102.928 23.7272 102.47 24.4802V24.4891Z" fill="#074D43"/>
<path d="M0.642361 22.2512C0.641762 22.2017 0.651049 22.1527 0.669676 22.1069C0.688302 22.0611 0.715891 22.0195 0.75082 21.9845C0.785748 21.9495 0.827311 21.9219 0.873061 21.9033C0.918811 21.8846 0.967825 21.8753 1.01722 21.8759H1.60181C3.17264 21.8759 4.27936 21.5186 4.9666 20.8039C5.65383 20.0892 5.96621 19.0529 5.94836 17.677C5.9478 17.2443 5.92396 16.8118 5.87696 16.3816C5.82787 15.9349 5.76093 15.4883 5.68061 14.9924L5.23435 12.2408C5.22406 12.1911 5.22395 12.1399 5.234 12.0902C5.24406 12.0405 5.26408 11.9933 5.29287 11.9515C5.32165 11.9098 5.35859 11.8743 5.40145 11.8473C5.44432 11.8202 5.49223 11.8021 5.54227 11.7941L7.18896 11.5216C7.23853 11.512 7.28953 11.5123 7.33896 11.5227C7.38839 11.533 7.43527 11.5531 7.47683 11.5818C7.5184 11.6105 7.55382 11.6473 7.58102 11.6898C7.60821 11.7324 7.62664 11.78 7.63522 11.8299L7.93867 13.6166C8.06809 14.4073 8.16626 15.1354 8.2332 15.8099C8.30014 16.4844 8.33138 17.0695 8.33138 17.5966C8.33851 18.6267 8.19876 19.6525 7.91636 20.6431C7.67507 21.5037 7.25879 22.3051 6.69361 22.9971C6.12981 23.6709 5.41393 24.2007 4.60513 24.5427C3.66144 24.9364 2.64632 25.1296 1.62413 25.11H1.01722C0.968202 25.1106 0.919558 25.1014 0.874103 25.0831C0.828649 25.0647 0.787288 25.0375 0.75242 25.003C0.717552 24.9685 0.689869 24.9274 0.670976 24.8822C0.652084 24.8369 0.642358 24.7883 0.642361 24.7392V22.2512Z" fill="#074D43"/>
<path d="M13.0531 19.1958C12.2177 19.2456 11.3965 18.963 10.7682 18.4096C10.2298 17.8914 9.95903 17.0919 9.95605 16.0109V14.6708C9.95723 14.572 9.99724 14.4778 10.0674 14.4083C10.1376 14.3389 10.2323 14.3 10.3309 14.3H12.0892C12.1878 14.3 12.2825 14.3389 12.3527 14.4083C12.4228 14.4778 12.4628 14.572 12.464 14.6708V15.9707H16.2974C16.8087 16.0252 17.3218 15.8849 17.7343 15.5776C17.8732 15.4354 17.981 15.2659 18.0509 15.0798C18.1208 14.8937 18.1513 14.6951 18.1404 14.4966C18.1014 13.9641 17.8952 13.4575 17.5514 13.0493C16.9435 12.2821 16.2781 11.5623 15.561 10.8962L13.3298 8.71639C13.2608 8.64693 13.2221 8.55299 13.2221 8.45508C13.2221 8.35716 13.2608 8.26322 13.3298 8.19376L15.0479 6.34893C15.0828 6.31259 15.1248 6.28368 15.1711 6.26393C15.2175 6.24419 15.2674 6.23401 15.3178 6.23401C15.3682 6.23401 15.4181 6.24419 15.4645 6.26393C15.5109 6.28368 15.5529 6.31259 15.5878 6.34893L17.4532 8.2831C17.968 8.80716 18.4523 9.36048 18.9035 9.94033C19.2692 10.4145 19.5904 10.9214 19.863 11.4546C20.1005 11.9262 20.2775 12.426 20.3896 12.9421C20.4988 13.465 20.5527 13.9981 20.5502 14.5323C20.5502 15.9915 20.1605 17.1306 19.381 17.9495C18.6016 18.7684 17.4963 19.1839 16.0653 19.1958H13.0531Z" fill="#074D43"/>
<path d="M58.0758 14.3268C58.0758 15.9975 57.6519 17.2303 56.804 18.0165C55.9561 18.8027 54.5727 19.1958 52.7252 19.1958H27.7348C26.1148 19.1958 24.9189 18.8384 24.1647 18.1103C23.4105 17.3822 23.0178 16.1851 23.0178 14.5368V1.36833C23.0178 1.31732 23.028 1.26683 23.0479 1.21986C23.0678 1.1729 23.097 1.13043 23.1336 1.095C23.1703 1.05956 23.2137 1.03188 23.2613 1.0136C23.3088 0.99533 23.3596 0.98684 23.4105 0.98864H25.2893C25.3883 0.990973 25.4825 1.032 25.5517 1.10296C25.621 1.17391 25.6597 1.26916 25.6597 1.36833V14.1794C25.6597 14.8807 25.8159 15.3542 26.1059 15.5999C26.5706 15.8905 27.1181 16.0192 27.6634 15.9662H52.7118C53.8587 15.9662 54.6441 15.8501 55.077 15.6178C55.2976 15.4875 55.4762 15.2967 55.5917 15.0678C55.7071 14.839 55.7546 14.5819 55.7285 14.3268C55.7285 14.0633 55.7285 13.7238 55.666 13.3263C55.6035 12.9287 55.55 12.3882 55.434 11.7182L55.1082 9.8778C55.0922 9.77863 55.1147 9.67708 55.1711 9.59401C55.2276 9.51094 55.3136 9.45265 55.4117 9.4311L57.0851 9.16756C57.1327 9.15864 57.1817 9.15952 57.2289 9.17013C57.2762 9.18074 57.3208 9.20087 57.36 9.22928C57.3993 9.2577 57.4323 9.29381 57.4572 9.33541C57.482 9.37702 57.4982 9.42326 57.5046 9.47131L57.7991 11.3117C57.8839 11.87 57.9464 12.4195 57.9866 12.9555C58.0267 13.4915 58.0758 13.9427 58.0758 14.3268Z" fill="#074D43"/>
<path d="M56.9603 21.6884C56.6959 21.4483 56.3488 21.3202 55.992 21.331H55.5725C55.2132 21.3215 54.8638 21.4493 54.5952 21.6884C54.4567 21.8471 54.3518 22.0322 54.2866 22.2325C54.2214 22.4329 54.1973 22.6443 54.2159 22.8542C54.1972 23.0614 54.2212 23.2702 54.2865 23.4677C54.3517 23.6651 54.4568 23.8471 54.5952 24.0022C54.8616 24.2449 55.2125 24.3733 55.5725 24.3596H55.992C56.169 24.3671 56.3457 24.3394 56.5119 24.2781C56.6782 24.2167 56.8306 24.123 56.9603 24.0022C57.0996 23.8477 57.2053 23.6658 57.2706 23.4682C57.3359 23.2705 57.3594 23.0615 57.3397 22.8542C57.3592 22.6443 57.3357 22.4325 57.2704 22.232C57.2052 22.0315 57.0997 21.8465 56.9603 21.6884Z" fill="#074D43"/>
<path d="M7.16878e-05 31.9309C-0.00110879 31.8572 0.0123003 31.784 0.0395254 31.7156C0.0667506 31.6471 0.107253 31.5847 0.158696 31.5319C0.21014 31.4792 0.271506 31.4372 0.339255 31.4083C0.407005 31.3794 0.479796 31.3642 0.553431 31.3637H7.93899C8.5884 31.3543 9.23408 31.4633 9.84451 31.6853C10.3803 31.88 10.8696 32.1842 11.2815 32.5787C11.6808 32.9677 11.986 33.4428 12.174 33.9679C12.3818 34.5404 12.4861 35.1455 12.4819 35.7546C12.4975 36.3197 12.4098 36.8828 12.2231 37.4163C12.0718 37.8313 11.838 38.2112 11.5358 38.533C11.259 38.8216 10.9245 39.0484 10.5541 39.1986C10.1883 39.3446 9.80057 39.4277 9.40718 39.4443V39.5917C9.82296 39.5968 10.2349 39.6723 10.6255 39.815C11.069 39.9678 11.4783 40.2061 11.8304 40.5164C12.2176 40.8585 12.5305 41.2766 12.7497 41.7448C13.0156 42.327 13.1424 42.9632 13.12 43.603C13.1246 44.2607 13.0128 44.914 12.7898 45.5327C12.5816 46.1068 12.2684 46.637 11.8661 47.0961C11.4751 47.5366 10.9982 47.8923 10.4648 48.1414C9.90594 48.4008 9.29576 48.5306 8.67978 48.5211H0.553431C0.411195 48.5212 0.274356 48.4666 0.171317 48.3684C0.0682787 48.2703 0.00695401 48.1362 7.16878e-05 47.994V31.9309ZM3.24436 38.5375H7.26068C7.50828 38.553 7.75647 38.5191 7.99088 38.4378C8.22529 38.3565 8.44125 38.2295 8.62623 38.064C8.79566 37.8864 8.9267 37.6757 9.01116 37.4452C9.09562 37.2146 9.13169 36.9691 9.11711 36.7239V35.9512C9.13169 35.706 9.09562 35.4605 9.01116 35.2299C8.9267 34.9994 8.79566 34.7887 8.62623 34.6111C8.43997 34.4446 8.22263 34.3166 7.98673 34.2346C7.75083 34.1525 7.50104 34.1181 7.25176 34.1331H3.23544L3.24436 38.5375ZM3.24436 45.7918H7.76495C8.29199 45.8265 8.81192 45.6551 9.21529 45.3138C9.39589 45.1328 9.53557 44.9152 9.62488 44.6755C9.71418 44.4358 9.75104 44.1798 9.73295 43.9246V43.0893C9.74925 42.8323 9.71161 42.5747 9.62245 42.3331C9.53329 42.0916 9.3946 41.8714 9.21529 41.6867C8.81659 41.3356 8.29494 41.1572 7.76495 41.1909H3.24436V45.7918Z" fill="#074D43"/>
<path d="M25.5345 48.5479C25.2358 48.5621 24.9373 48.516 24.6567 48.4124C24.3761 48.3088 24.1192 48.1498 23.9012 47.9449C23.4819 47.5057 23.2184 46.9406 23.1515 46.3368H23.0043C22.8332 47.1105 22.3652 47.7859 21.7012 48.2174C20.968 48.6569 20.1231 48.8741 19.2691 48.8427C17.9571 48.8427 16.9485 48.5003 16.2435 47.8153C15.8852 47.4562 15.605 47.0268 15.4207 46.554C15.2364 46.0812 15.1518 45.5753 15.1724 45.0682C15.1341 44.4942 15.2451 43.92 15.4946 43.4017C15.7441 42.8835 16.1236 42.4388 16.596 42.1111C17.5465 41.4679 18.8987 41.1418 20.6525 41.1418H22.8391V40.2082C22.8896 39.6037 22.7005 39.0036 22.3126 38.5376C22.0664 38.3196 21.7783 38.1544 21.4659 38.0522C21.1535 37.9501 20.8235 37.913 20.4963 37.9435C19.8654 37.9124 19.2408 38.0812 18.7113 38.4259C18.4162 38.6315 18.1466 38.8714 17.908 39.1406C17.8594 39.1941 17.8008 39.2374 17.7354 39.2681C17.6701 39.2989 17.5993 39.3164 17.5272 39.3197C17.455 39.3231 17.3829 39.3121 17.3151 39.2875C17.2472 39.2629 17.1848 39.2251 17.1315 39.1763L16.0649 38.2159C15.9598 38.12 15.8952 37.9875 15.8844 37.8455C15.8737 37.7036 15.9175 37.5628 16.0069 37.4521C16.4439 36.9074 16.9818 36.4524 17.5911 36.112C18.5547 35.6145 19.6319 35.3788 20.715 35.4286C22.4554 35.4286 23.7718 35.8217 24.6733 36.6078C25.5747 37.394 26.012 38.5242 26.012 39.9938V46.0152H26.735C26.8779 46.0162 27.0149 46.0727 27.1172 46.1726C27.2195 46.2725 27.2793 46.4082 27.2839 46.5512V47.9761C27.2839 48.0493 27.2694 48.1217 27.2413 48.1891C27.2132 48.2566 27.1721 48.3179 27.1202 48.3694C27.0684 48.4209 27.0068 48.4616 26.9392 48.4892C26.8715 48.5167 26.7991 48.5306 26.726 48.53L25.5345 48.5479ZM20.3267 46.5512C20.9522 46.5763 21.5717 46.4213 22.1117 46.1045C22.3467 45.9648 22.5392 45.7638 22.6689 45.5231C22.7986 45.2823 22.8605 45.0109 22.8481 44.7376V43.0402H20.8399C19.2021 43.0402 18.3855 43.5584 18.3855 44.6036V45.0146C18.3674 45.2348 18.4039 45.456 18.4919 45.6587C18.5799 45.8613 18.7166 46.039 18.8898 46.176C19.3152 46.4543 19.8197 46.5861 20.3267 46.5512Z" fill="#074D43"/>
<path d="M37.8027 46.4082H37.6777C37.4613 47.136 37.0011 47.7669 36.3747 48.195C35.7174 48.6417 34.9376 48.8728 34.1434 48.8561C33.4271 48.8957 32.7122 48.7569 32.0627 48.4521C31.4132 48.1473 30.8493 47.686 30.4216 47.1095C29.5588 45.9392 29.1274 44.2641 29.1274 42.0843C29.1274 39.9044 29.5573 38.2517 30.4171 37.126C30.8479 36.5537 31.4127 36.0963 32.0618 35.7941C32.7108 35.4919 33.4241 35.3541 34.1389 35.3928C34.9317 35.3773 35.7103 35.6049 36.3702 36.045C36.9964 36.4615 37.4574 37.0841 37.6733 37.805H37.7982V30.917C37.795 30.8403 37.8078 30.7637 37.836 30.6923C37.8641 30.6208 37.9069 30.5561 37.9615 30.5022C38.0162 30.4484 38.0815 30.4065 38.1533 30.3795C38.2251 30.3525 38.3018 30.3408 38.3784 30.3452H40.4178C40.5638 30.351 40.7015 30.4144 40.801 30.5215C40.9005 30.6287 40.9536 30.7708 40.9488 30.917V48.0119C40.9488 48.1588 40.8905 48.2996 40.7867 48.4035C40.683 48.5074 40.5422 48.5658 40.3954 48.5658H38.3784C38.3055 48.5664 38.2333 48.5524 38.1659 48.5248C38.0985 48.4972 38.0373 48.4564 37.9858 48.4048C37.9342 48.3533 37.8935 48.292 37.8659 48.2245C37.8383 48.1571 37.8244 48.0848 37.825 48.0119L37.8027 46.4082ZM35.1475 46.234C35.8194 46.2585 36.4818 46.0693 37.0396 45.6935C37.2874 45.5208 37.4873 45.2881 37.6208 45.017C37.7542 44.7459 37.8168 44.4454 37.8027 44.1435V40.0608C37.8085 39.7671 37.742 39.4765 37.6089 39.2147C37.4758 38.9529 37.2802 38.728 37.0396 38.5599C36.4868 38.1709 35.8229 37.9718 35.1475 37.9926C34.7771 37.978 34.4079 38.0445 34.0658 38.1872C33.7236 38.3299 33.4166 38.5455 33.1661 38.819C32.6441 39.4298 32.3772 40.2185 32.4208 41.0211V43.2546C32.3779 44.0531 32.6449 44.8373 33.1661 45.4434C33.4206 45.7095 33.7291 45.9177 34.071 46.0541C34.4128 46.1905 34.7799 46.2519 35.1475 46.234Z" fill="#074D43"/>
<path d="M46.1564 33.8384C45.9034 33.862 45.6483 33.8347 45.4061 33.7579C45.1639 33.6812 44.9395 33.5567 44.7462 33.3917C44.5993 33.2424 44.484 33.065 44.4073 32.87C44.3306 32.675 44.2941 32.4665 44.3 32.2571V31.7657C44.2939 31.5569 44.3304 31.3491 44.4071 31.1548C44.4838 30.9605 44.5992 30.7839 44.7462 30.6356C45.1574 30.3449 45.6485 30.1888 46.1519 30.1888C46.6554 30.1888 47.1464 30.3449 47.5576 30.6356C47.7053 30.7834 47.8211 30.9599 47.8979 31.1543C47.9746 31.3487 48.0107 31.5568 48.0039 31.7657V32.2571C48.0103 32.4666 47.974 32.6752 47.8973 32.8703C47.8206 33.0654 47.705 33.2427 47.5576 33.3917C47.3649 33.5547 47.1419 33.6781 46.9015 33.7547C46.661 33.8314 46.4078 33.8598 46.1564 33.8384ZM45.1389 35.7055H47.1783C47.2538 35.7037 47.3289 35.7172 47.3991 35.7453C47.4692 35.7734 47.5329 35.8155 47.5863 35.8689C47.6397 35.9224 47.6817 35.9861 47.7098 36.0563C47.7378 36.1265 47.7514 36.2017 47.7495 36.2773V48.0119C47.7495 48.1588 47.6912 48.2997 47.5875 48.4036C47.4837 48.5074 47.3429 48.5658 47.1962 48.5658H45.1568C45.0839 48.5664 45.0117 48.5525 44.9443 48.5248C44.8769 48.4972 44.8157 48.4564 44.7642 48.4049C44.7127 48.3533 44.6719 48.292 44.6443 48.2246C44.6167 48.1571 44.6028 48.0848 44.6034 48.0119V36.2773C44.601 36.2046 44.613 36.1321 44.6386 36.0639C44.6643 35.9958 44.703 35.9334 44.7528 35.8803C44.8025 35.8272 44.8622 35.7845 44.9285 35.7545C44.9947 35.7245 45.0662 35.7079 45.1389 35.7055Z" fill="#074D43"/>
<path d="M51.3691 47.994V36.2773C51.3691 36.1304 51.4274 35.9895 51.5312 35.8856C51.635 35.7817 51.7757 35.7234 51.9225 35.7234H53.9619C54.1083 35.7245 54.2484 35.7833 54.3519 35.8869C54.4554 35.9905 54.5141 36.1307 54.5153 36.2773V38.3812H54.6357C54.7205 38.0341 54.8495 37.6993 55.0195 37.3851C55.191 37.0637 55.4193 36.7761 55.6934 36.5364C55.9822 36.2774 56.3146 36.0718 56.6751 35.9289C57.104 35.7729 57.5578 35.6972 58.0139 35.7055H58.7011V38.6849H57.7194C56.8915 38.6314 56.0634 38.7849 55.3096 39.1316C55.0451 39.2845 54.829 39.5089 54.6861 39.7791C54.5433 40.0494 54.4794 40.3544 54.5019 40.6593V47.9761C54.5019 48.123 54.4436 48.2639 54.3398 48.3678C54.236 48.4717 54.0953 48.53 53.9485 48.53H51.9091C51.7674 48.5278 51.632 48.4707 51.5314 48.3708C51.4307 48.2709 51.3726 48.1358 51.3691 47.994Z" fill="#074D43"/>
<path d="M18.7429 21.7286L13.12 24.3149C13.0891 24.3297 13.0555 24.3381 13.0212 24.3396C12.9869 24.3411 12.9527 24.3356 12.9206 24.3235C12.8885 24.3114 12.8592 24.2929 12.8344 24.2692C12.8096 24.2455 12.7899 24.217 12.7764 24.1854L12.2766 23.0865C12.2492 23.0236 12.2474 22.9525 12.2715 22.8882C12.2957 22.824 12.344 22.7717 12.406 22.7426L18.0244 20.1339C18.0557 20.119 18.0896 20.1105 18.1242 20.109C18.1588 20.1075 18.1933 20.1129 18.2258 20.125C18.2583 20.1371 18.288 20.1556 18.3132 20.1793C18.3384 20.2031 18.3585 20.2317 18.3725 20.2634L18.8723 21.3846C18.8997 21.4475 18.9015 21.5187 18.8774 21.5829C18.8532 21.6471 18.805 21.6994 18.7429 21.7286Z" fill="#074D43"/>
</svg>
