<svg width="102" height="40" viewBox="0 0 102 40" fill="none" xmlns="http://www.w3.org/2000/svg">
<path d="M101.2 22.1557L89.5006 14.6402L98.1811 12.9295C98.3474 12.8959 98.4935 12.8006 98.5881 12.6639C98.6826 12.5272 98.7181 12.3601 98.6869 12.1984C98.4038 10.8495 98.1245 9.53359 97.8452 8.21033C97.8097 8.04952 97.7112 7.90829 97.5705 7.81628C97.4297 7.72427 97.2577 7.68863 97.0904 7.71685L83.3525 10.4109C85.0357 7.95445 86.6322 5.61133 88.2589 3.24628C88.3064 3.17746 88.3394 3.10022 88.356 3.019C88.3726 2.93778 88.3725 2.85419 88.3557 2.77301C88.3388 2.69184 88.3056 2.61468 88.2579 2.54598C88.2102 2.47727 88.149 2.41836 88.0777 2.37264L84.5413 0.106288C84.3969 0.0141174 84.2208 -0.0191546 84.0512 0.0136967C83.8816 0.046548 83.7322 0.14287 83.6355 0.281748C80.971 4.18207 78.3253 8.04218 75.6079 12.0229C74.9549 8.9012 74.3284 5.92204 73.6981 2.92461C73.6618 2.76447 73.563 2.62412 73.4223 2.53286C73.2817 2.44159 73.1101 2.40645 72.9433 2.43478L68.8068 3.22801C68.6413 3.26325 68.496 3.35881 68.4012 3.4949C68.3063 3.63098 68.2692 3.79718 68.2973 3.95909C69.2635 8.58318 70.2184 13.1415 71.1996 17.8277L63.8061 13.0757C63.735 13.0297 63.6553 12.9977 63.5714 12.9816C63.4875 12.9655 63.4012 12.9656 63.3174 12.9819C63.2336 12.9982 63.1539 13.0304 63.083 13.0766C63.0121 13.1228 62.9513 13.1821 62.904 13.2511C62.1266 14.3807 61.3604 15.5065 60.5754 16.647C60.5245 16.7173 60.489 16.7969 60.4709 16.881C60.4528 16.965 60.4526 17.0518 60.4702 17.1359C60.4879 17.22 60.5231 17.2998 60.5736 17.3704C60.6241 17.4409 60.6889 17.5007 60.7641 17.5462L72.464 25.0654L64.1835 26.703C64.017 26.7366 63.8706 26.8318 63.7754 26.9683C63.6803 27.1049 63.6439 27.272 63.674 27.4341C63.957 28.7793 64.2288 30.0879 64.5043 31.4185C64.5398 31.5793 64.6383 31.7206 64.779 31.8126C64.9198 31.9046 65.0918 31.9402 65.2591 31.912L78.5479 29.3093L74.0189 35.922C73.9709 35.9907 73.9375 36.0679 73.9206 36.1492C73.9037 36.2305 73.9037 36.3142 73.9206 36.3956C73.9374 36.4769 73.9708 36.5541 74.0188 36.6228C74.0668 36.6915 74.1284 36.7502 74.2001 36.7956L77.7025 39.0474C77.8469 39.1395 78.0231 39.1728 78.1927 39.1399C78.3623 39.1071 78.5116 39.0108 78.6083 38.8719C81.2276 35.0922 83.8091 31.3271 86.451 27.467L88.3381 36.4813C88.3737 36.6421 88.4721 36.7833 88.6129 36.8753C88.7536 36.9673 88.9257 37.003 89.0929 36.9747L93.2219 36.1559C93.3889 36.1232 93.5359 36.0282 93.6312 35.8914C93.7265 35.7547 93.7625 35.5871 93.7314 35.4248C92.7954 30.9397 91.8745 26.5203 90.9272 21.9839L98.1434 26.6153C98.215 26.6613 98.2952 26.6931 98.3795 26.7089C98.4638 26.7248 98.5505 26.7244 98.6347 26.7078C98.7188 26.6911 98.7987 26.6586 98.8698 26.612C98.941 26.5654 99.0019 26.5056 99.0492 26.4362L101.382 23.0294C101.476 22.8898 101.509 22.7201 101.475 22.5567C101.442 22.3933 101.343 22.2493 101.2 22.1557ZM86.6624 19.2314C86.4953 19.4838 86.3005 19.7179 86.0812 19.9296C85.8057 20.1928 85.5339 20.4596 85.2584 20.7191C84.6545 21.3113 84.0431 21.8962 83.4317 22.4884C82.6769 23.2194 81.922 23.9505 81.1672 24.6816C81.1068 24.7474 81.0427 24.8022 80.9408 24.8936C80.6502 24.5975 80.3671 24.3088 80.0803 24.0273L78.5027 22.4518C77.8912 21.8669 77.2874 21.2748 76.6835 20.6826C76.3816 20.3975 76.0834 20.1087 75.7853 19.8163C75.4695 19.5081 75.2222 19.1406 75.0586 18.7364C74.895 18.3321 74.8186 17.8997 74.8342 17.4658C74.8495 16.6494 75.1777 15.8676 75.7551 15.2726C75.8959 15.1289 76.0501 14.998 76.2155 14.8815C76.5311 14.6625 76.8854 14.5015 77.261 14.4062C77.6302 14.3121 78.0116 14.2702 78.3932 14.282C79.0495 14.314 79.6852 14.5146 80.235 14.8632C80.397 14.9575 80.5521 15.0626 80.6992 15.1775C80.9672 15.3896 80.9483 15.3786 81.2314 15.1775C81.7774 14.746 82.426 14.4532 83.1185 14.3258C83.1372 14.3225 83.1564 14.3225 83.1751 14.3258C83.8548 14.227 84.5496 14.321 85.1754 14.5963C85.4344 14.7023 85.677 14.8425 85.8962 15.013C86.0014 15.0918 86.0998 15.1786 86.1906 15.2726C86.5738 15.6636 86.8444 16.1451 86.9756 16.6689C87.0174 16.8329 87.0501 16.9988 87.0738 17.1661C87.1955 17.8777 87.0495 18.6079 86.6624 19.2241V19.2314Z" fill="#074D43"/>
<path d="M0.543602 17.4C0.543096 17.3596 0.55095 17.3194 0.566703 17.2819C0.582456 17.2445 0.605789 17.2104 0.635329 17.1818C0.66487 17.1532 0.700021 17.1306 0.738713 17.1153C0.777406 17.1001 0.818858 17.0925 0.860632 17.093H1.35505C2.68355 17.093 3.61954 16.8005 4.20076 16.2157C4.78198 15.6308 5.04618 14.7828 5.03108 13.6569C5.0306 13.3027 5.01044 12.9489 4.97069 12.5968C4.92918 12.2313 4.87256 11.8657 4.80463 11.46L4.42721 9.20825C4.41851 9.16761 4.41841 9.12567 4.42692 9.08499C4.43542 9.0443 4.45236 9.00571 4.4767 8.97154C4.50104 8.93737 4.53229 8.90834 4.56854 8.8862C4.60479 8.86405 4.64531 8.84926 4.68763 8.84271L6.0803 8.61973C6.12222 8.61183 6.16535 8.61212 6.20716 8.62058C6.24896 8.62903 6.28861 8.64549 6.32376 8.66898C6.35891 8.69248 6.38887 8.72253 6.41187 8.75739C6.43487 8.79224 6.45046 8.83119 6.45771 8.87196L6.71436 10.3341C6.82381 10.9811 6.90684 11.577 6.96345 12.1289C7.02006 12.6809 7.04648 13.1598 7.04648 13.5911C7.05251 14.434 6.93432 15.2735 6.69548 16.0841C6.49141 16.7883 6.13935 17.4442 5.66136 18.0105C5.18453 18.5618 4.57909 18.9954 3.89506 19.2753C3.09694 19.5974 2.23842 19.7555 1.37392 19.7395H0.860632C0.819178 19.74 0.778037 19.7325 0.739595 19.7175C0.701152 19.7024 0.666172 19.6801 0.636683 19.6519C0.607193 19.6237 0.583781 19.5901 0.567803 19.553C0.551825 19.516 0.543599 19.4762 0.543602 19.4361V17.4Z" fill="#074D43"/>
<path d="M11.0396 14.8997C10.333 14.9405 9.6385 14.7092 9.10719 14.2564C8.65177 13.8323 8.4228 13.178 8.42029 12.2934V11.1968C8.42128 11.116 8.45512 11.0388 8.51447 10.982C8.57382 10.9252 8.65389 10.8934 8.73732 10.8934H10.2243C10.3078 10.8934 10.3878 10.9252 10.4472 10.982C10.5065 11.0388 10.5404 11.116 10.5414 11.1968V12.2605H13.7834C14.2158 12.3052 14.6498 12.1903 14.9987 11.9388C15.1161 11.8225 15.2073 11.6838 15.2664 11.5315C15.3255 11.3792 15.3513 11.2167 15.3421 11.0542C15.3091 10.6185 15.1347 10.2039 14.8439 9.86988C14.3298 9.24206 13.7671 8.65305 13.1606 8.10797L11.2736 6.32413C11.2152 6.26729 11.1825 6.19042 11.1825 6.11029C11.1825 6.03017 11.2152 5.95329 11.2736 5.89645L12.7266 4.38677C12.7562 4.35703 12.7916 4.33337 12.8309 4.31721C12.8701 4.30105 12.9123 4.29272 12.9549 4.29272C12.9976 4.29272 13.0398 4.30105 13.079 4.31721C13.1182 4.33337 13.1537 4.35703 13.1833 4.38677L14.7609 5.96956C15.1963 6.39841 15.6059 6.85121 15.9875 7.32572C16.2968 7.71372 16.5684 8.12854 16.7989 8.5649C16.9999 8.95081 17.1495 9.35981 17.2443 9.78215C17.3367 10.2101 17.3822 10.6463 17.3801 11.0835C17.3801 12.2776 17.0505 13.2097 16.3913 13.8799C15.7321 14.55 14.7974 14.89 13.5871 14.8997H11.0396Z" fill="#074D43"/>
<path d="M49.1171 10.9154C49.1171 12.2825 48.7585 13.2914 48.0415 13.9347C47.3244 14.5781 46.1544 14.8998 44.5919 14.8998H23.4566C22.0866 14.8998 21.0751 14.6073 20.4372 14.0115C19.7994 13.4157 19.4673 12.436 19.4673 11.0872V0.311025C19.4673 0.269283 19.4759 0.227963 19.4927 0.189533C19.5096 0.151103 19.5342 0.116351 19.5652 0.0873506C19.5962 0.0583504 19.6329 0.0356973 19.6732 0.0207436C19.7134 0.00578999 19.7563 -0.0011576 19.7994 0.000315665H21.3883C21.4721 0.00222517 21.5518 0.0358016 21.6103 0.0938653C21.6688 0.151929 21.7016 0.229871 21.7016 0.311025V10.7947C21.7016 11.3686 21.8337 11.7561 22.079 11.9572C22.472 12.1949 22.935 12.3003 23.3962 12.2569H44.5806C45.5505 12.2569 46.2148 12.1619 46.5809 11.9718C46.7674 11.8652 46.9185 11.709 47.0162 11.5218C47.1138 11.3345 47.154 11.1241 47.1319 10.9154C47.1319 10.6997 47.1319 10.4219 47.079 10.0966C47.0262 9.77122 46.9809 9.32892 46.8828 8.78061L46.6073 7.27458C46.5937 7.19343 46.6128 7.11033 46.6605 7.04235C46.7082 6.97437 46.781 6.92667 46.8639 6.90904L48.2792 6.69337C48.3195 6.68607 48.3609 6.68679 48.4008 6.69547C48.4408 6.70416 48.4785 6.72063 48.5117 6.74388C48.5449 6.76713 48.5729 6.79668 48.5939 6.83073C48.6149 6.86478 48.6286 6.90262 48.634 6.94194L48.8831 8.44797C48.9548 8.90489 49.0076 9.35451 49.0416 9.79316C49.0756 10.2318 49.1171 10.601 49.1171 10.9154Z" fill="#074D43"/>
<path d="M48.1735 16.9394C47.9499 16.7429 47.6563 16.6381 47.3545 16.6469H46.9997C46.6958 16.6392 46.4003 16.7437 46.1732 16.9394C46.0561 17.0693 45.9673 17.2207 45.9122 17.3847C45.857 17.5486 45.8367 17.7217 45.8524 17.8934C45.8366 18.063 45.8569 18.2338 45.9121 18.3954C45.9673 18.557 46.0561 18.7059 46.1732 18.8329C46.3985 19.0315 46.6953 19.1365 46.9997 19.1253H47.3545C47.5042 19.1315 47.6537 19.1088 47.7942 19.0586C47.9348 19.0084 48.0637 18.9317 48.1735 18.8329C48.2913 18.7064 48.3806 18.5576 48.4359 18.3958C48.4911 18.2341 48.511 18.063 48.4943 17.8934C48.5108 17.7216 48.4909 17.5484 48.4357 17.3843C48.3806 17.2202 48.2913 17.0688 48.1735 16.9394Z" fill="#074D43"/>
<path d="M0.000182699 25.3213C-0.000815673 25.261 0.0105249 25.2011 0.0335502 25.1451C0.0565754 25.089 0.0908298 25.0379 0.134337 24.9948C0.177845 24.9516 0.229744 24.9172 0.287042 24.8936C0.34434 24.87 0.405903 24.8576 0.468179 24.8571H6.71442C7.26364 24.8494 7.80972 24.9386 8.32598 25.1203C8.77908 25.2796 9.19296 25.5286 9.54126 25.8514C9.87895 26.1697 10.1371 26.5585 10.2961 26.9882C10.4719 27.4567 10.5601 27.9518 10.5565 28.4503C10.5697 28.9128 10.4955 29.3736 10.3376 29.8102C10.2097 30.1497 10.012 30.4606 9.75639 30.724C9.5223 30.9602 9.23935 31.1458 8.92607 31.2687C8.61676 31.3881 8.28882 31.4561 7.95611 31.4697V31.5903C8.30775 31.5945 8.65613 31.6563 8.98646 31.7731C9.36156 31.8981 9.70775 32.0931 10.0055 32.347C10.333 32.627 10.5976 32.9691 10.783 33.3523C11.0079 33.8287 11.1151 34.3493 11.0962 34.8729C11.1 35.4111 11.0055 35.9457 10.8169 36.452C10.6409 36.9218 10.3759 37.3557 10.0357 37.7314C9.70501 38.0918 9.30172 38.3829 8.85059 38.5868C8.37793 38.7991 7.86188 38.9053 7.34093 38.8975H0.468179C0.347884 38.8976 0.232155 38.8529 0.145011 38.7726C0.0578678 38.6923 0.00600333 38.5825 0.000182699 38.4662V25.3213ZM2.744 30.7277H6.14074C6.35014 30.7403 6.56005 30.7126 6.7583 30.6461C6.95655 30.5796 7.13919 30.4756 7.29564 30.3402C7.43893 30.1949 7.54975 30.0225 7.62118 29.8338C7.69261 29.6451 7.72312 29.4442 7.71079 29.2436V28.6112C7.72312 28.4106 7.69261 28.2097 7.62118 28.021C7.54975 27.8323 7.43893 27.6599 7.29564 27.5146C7.13811 27.3783 6.9543 27.2736 6.75479 27.2064C6.55527 27.1393 6.34402 27.1111 6.13319 27.1234H2.73645L2.744 30.7277ZM2.744 36.6641H6.56722C7.01296 36.6924 7.45268 36.5522 7.79382 36.2729C7.94657 36.1248 8.0647 35.9467 8.14022 35.7506C8.21575 35.5544 8.24692 35.3449 8.23163 35.1361V34.4525C8.24541 34.2422 8.21358 34.0314 8.13817 33.8337C8.06277 33.6361 7.94547 33.4559 7.79382 33.3047C7.45663 33.0174 7.01545 32.8715 6.56722 32.899H2.744V36.6641Z" fill="#074D43"/>
<path d="M21.5959 38.9194C21.3433 38.931 21.0908 38.8933 20.8535 38.8086C20.6162 38.7238 20.3989 38.5937 20.2146 38.426C19.8599 38.0665 19.6371 37.6041 19.5805 37.11H19.456C19.3113 37.7432 18.9155 38.2959 18.3539 38.6489C17.7338 39.0086 17.0193 39.1864 16.297 39.1607C15.1874 39.1607 14.3344 38.8804 13.7381 38.32C13.4351 38.0261 13.1982 37.6746 13.0423 37.2877C12.8864 36.9008 12.8149 36.4869 12.8323 36.0719C12.7999 35.6021 12.8938 35.1323 13.1048 34.7082C13.3158 34.284 13.6367 33.9201 14.0363 33.652C14.8402 33.1256 15.9837 32.8588 17.467 32.8588H19.3163V32.0948C19.359 31.6001 19.199 31.109 18.871 30.7277C18.6628 30.5493 18.4191 30.4141 18.1549 30.3305C17.8907 30.2469 17.6116 30.2166 17.3349 30.2415C16.8013 30.2161 16.2731 30.3542 15.8252 30.6363C15.5757 30.8046 15.3477 31.0009 15.1459 31.2211C15.1048 31.2649 15.0552 31.3004 14.9999 31.3255C14.9446 31.3507 14.8848 31.365 14.8238 31.3678C14.7628 31.3705 14.7018 31.3615 14.6444 31.3414C14.587 31.3212 14.5342 31.2903 14.4892 31.2504L13.5871 30.4645C13.4982 30.386 13.4436 30.2776 13.4345 30.1614C13.4254 30.0452 13.4624 29.93 13.5381 29.8394C13.9076 29.3937 14.3625 29.0213 14.8779 28.7428C15.6928 28.3356 16.6038 28.1428 17.5198 28.1835C18.9917 28.1835 20.1051 28.5052 20.8675 29.1485C21.6299 29.7919 21.9997 30.7167 21.9997 31.9193V36.8468H22.6112C22.7321 36.8477 22.8479 36.8939 22.9344 36.9756C23.021 37.0574 23.0715 37.1684 23.0754 37.2855V38.4515C23.0754 38.5114 23.0632 38.5706 23.0394 38.6259C23.0156 38.6811 22.9808 38.7312 22.937 38.7734C22.8931 38.8155 22.8411 38.8488 22.7839 38.8714C22.7266 38.8939 22.6654 38.9053 22.6036 38.9048L21.5959 38.9194ZM17.1915 37.2855C17.7204 37.306 18.2444 37.1792 18.7011 36.9199C18.8998 36.8056 19.0627 36.6411 19.1724 36.4441C19.282 36.2471 19.3344 36.025 19.3239 35.8014V34.4123H17.6255C16.2404 34.4123 15.5497 34.8363 15.5497 35.6917V36.028C15.5344 36.2082 15.5653 36.3893 15.6397 36.5551C15.7141 36.7209 15.8297 36.8663 15.9762 36.9784C16.336 37.2062 16.7627 37.314 17.1915 37.2855Z" fill="#074D43"/>
<path d="M31.971 37.1685H31.8653C31.6823 37.764 31.2931 38.2803 30.7633 38.6307C30.2074 38.9962 29.5479 39.1853 28.8762 39.1717C28.2704 39.2041 27.6658 39.0905 27.1165 38.8411C26.5671 38.5916 26.0903 38.2141 25.7285 37.7424C24.9989 36.7847 24.634 35.4139 24.634 33.6301C24.634 31.8462 24.9976 30.4937 25.7248 29.5726C26.0891 29.1043 26.5668 28.73 27.1157 28.4826C27.6646 28.2353 28.2679 28.1225 28.8724 28.1543C29.5429 28.1415 30.2014 28.3278 30.7595 28.6879C31.2891 29.0288 31.6789 29.5383 31.8616 30.1282H31.9672V24.4915C31.9645 24.4288 31.9754 24.3661 31.9991 24.3077C32.0229 24.2492 32.0591 24.1962 32.1053 24.1521C32.1516 24.108 32.2068 24.0738 32.2675 24.0517C32.3283 24.0296 32.3931 24.02 32.4579 24.0236H34.1827C34.3061 24.0284 34.4227 24.0803 34.5068 24.1679C34.5909 24.2556 34.6359 24.3719 34.6318 24.4915V38.4808C34.6318 38.601 34.5825 38.7163 34.4947 38.8013C34.4069 38.8863 34.2879 38.9341 34.1638 38.9341H32.4579C32.3963 38.9345 32.3352 38.9231 32.2782 38.9005C32.2212 38.8779 32.1694 38.8446 32.1258 38.8024C32.0823 38.7602 32.0478 38.71 32.0245 38.6548C32.0011 38.5996 31.9894 38.5404 31.9899 38.4808L31.971 37.1685ZM29.7254 37.0259C30.2936 37.046 30.8539 36.8911 31.3256 36.5836C31.5352 36.4423 31.7043 36.2518 31.8172 36.03C31.93 35.8082 31.983 35.5622 31.971 35.3152V31.9742C31.976 31.7338 31.9197 31.496 31.8071 31.2818C31.6945 31.0676 31.5291 30.8835 31.3256 30.7459C30.8581 30.4276 30.2966 30.2647 29.7254 30.2817C29.4121 30.2698 29.0999 30.3242 28.8106 30.4409C28.5212 30.5577 28.2615 30.7341 28.0497 30.958C27.6082 31.4579 27.3825 32.1032 27.4194 32.7601V34.5878C27.3831 35.2412 27.6089 35.883 28.0497 36.3789C28.2649 36.5967 28.5259 36.7671 28.8149 36.8787C29.104 36.9903 29.4145 37.0405 29.7254 37.0259Z" fill="#074D43"/>
<path d="M39.0362 26.8823C38.8222 26.9016 38.6065 26.8792 38.4016 26.8164C38.1968 26.7537 38.007 26.6517 37.8435 26.5167C37.7193 26.3946 37.6218 26.2494 37.5569 26.0898C37.492 25.9303 37.4612 25.7597 37.4661 25.5882V25.1862C37.461 25.0153 37.4919 24.8452 37.5567 24.6862C37.6216 24.5272 37.7192 24.3827 37.8435 24.2613C38.1913 24.0234 38.6066 23.8957 39.0324 23.8957C39.4582 23.8957 39.8735 24.0234 40.2213 24.2613C40.3461 24.3823 40.4441 24.5268 40.509 24.6858C40.5739 24.8449 40.6044 25.0152 40.5987 25.1862V25.5882C40.6041 25.7597 40.5734 25.9304 40.5085 26.0901C40.4436 26.2497 40.3459 26.3948 40.2213 26.5167C40.0582 26.6501 39.8697 26.7511 39.6663 26.8138C39.4629 26.8765 39.2488 26.8998 39.0362 26.8823ZM38.1757 28.4102H39.9005C39.9643 28.4087 40.0278 28.4198 40.0871 28.4428C40.1465 28.4658 40.2003 28.5002 40.2455 28.5439C40.2907 28.5877 40.3262 28.6399 40.3499 28.6973C40.3737 28.7547 40.3851 28.8163 40.3835 28.8781V38.4809C40.3835 38.6011 40.3342 38.7164 40.2465 38.8014C40.1587 38.8864 40.0397 38.9341 39.9156 38.9341H38.1908C38.1292 38.9346 38.0681 38.9232 38.0111 38.9006C37.9541 38.878 37.9023 38.8447 37.8587 38.8025C37.8152 38.7603 37.7807 38.7101 37.7574 38.6549C37.734 38.5997 37.7223 38.5405 37.7228 38.4809V28.8781C37.7207 28.8186 37.7309 28.7592 37.7525 28.7035C37.7742 28.6478 37.807 28.5967 37.8491 28.5533C37.8911 28.5098 37.9416 28.4748 37.9977 28.4503C38.0537 28.4257 38.1142 28.4121 38.1757 28.4102Z" fill="#074D43"/>
<path d="M43.4445 38.4662V28.8781C43.4445 28.7579 43.4938 28.6426 43.5815 28.5576C43.6693 28.4725 43.7883 28.4248 43.9125 28.4248H45.6372C45.7611 28.4258 45.8795 28.4738 45.9671 28.5586C46.0546 28.6434 46.1043 28.7581 46.1052 28.8781V30.5998H46.2071C46.2788 30.3157 46.3879 30.0417 46.5317 29.7846C46.6767 29.5216 46.8698 29.2863 47.1016 29.0901C47.3459 28.8782 47.627 28.7099 47.9319 28.5929C48.2946 28.4653 48.6784 28.4034 49.0642 28.4102H49.6454V30.8483H48.8151C48.1149 30.8045 47.4145 30.9301 46.777 31.2139C46.5533 31.339 46.3706 31.5226 46.2498 31.7438C46.1289 31.9649 46.0749 32.2145 46.0939 32.464V38.4516C46.0939 38.5718 46.0446 38.6871 45.9568 38.7721C45.8691 38.8571 45.75 38.9049 45.6259 38.9049H43.9011C43.7813 38.903 43.6668 38.8563 43.5817 38.7745C43.4965 38.6928 43.4474 38.5823 43.4445 38.4662Z" fill="#074D43"/>
<path d="M15.8516 16.9724L11.0962 19.0889C11.07 19.101 11.0416 19.1079 11.0126 19.1091C10.9836 19.1103 10.9547 19.1058 10.9275 19.0959C10.9004 19.086 10.8756 19.0709 10.8546 19.0515C10.8336 19.032 10.817 19.0087 10.8055 18.9829L10.3828 18.0836C10.3596 18.0322 10.3581 17.9739 10.3785 17.9214C10.399 17.8688 10.4398 17.826 10.4923 17.8022L15.244 15.6674C15.2704 15.6552 15.2991 15.6483 15.3284 15.6471C15.3576 15.6458 15.3868 15.6503 15.4143 15.6601C15.4417 15.67 15.4669 15.6851 15.4882 15.7046C15.5095 15.7241 15.5265 15.7475 15.5383 15.7734L15.961 16.6909C15.9842 16.7424 15.9858 16.8006 15.9653 16.8532C15.9449 16.9058 15.9041 16.9485 15.8516 16.9724Z" fill="#074D43"/>
</svg>
