<svg xmlns="http://www.w3.org/2000/svg" viewBox="0 0 69.96 69.96"><defs><style>.cls-1{fill:#064E43;}</style></defs><g id="Layer_2" data-name="Layer 2"><g id="Layer_1-2" data-name="Layer 1"><path class="cls-1" d="M67,32.06H61.21V26.23a2.92,2.92,0,0,0-5.83,0v5.83H49.55a2.92,2.92,0,0,0,0,5.83h5.83v5.83a2.92,2.92,0,1,0,5.83,0V37.89H67a2.92,2.92,0,1,0,0-5.83Z"/><circle class="cls-1" cx="26.23" cy="17.49" r="17.49"/><path class="cls-1" d="M26.23,40.81A26.26,26.26,0,0,0,0,67,2.91,2.91,0,0,0,2.91,70H49.55A2.92,2.92,0,0,0,52.47,67,26.26,26.26,0,0,0,26.23,40.81Z"/></g></g></svg>