<svg xmlns="http://www.w3.org/2000/svg" viewBox="0 0 66.16 70.26"><defs><style>.cls-1{fill:#064E43;}</style></defs><g id="Layer_2" data-name="Layer 2"><g id="Layer_1-2" data-name="Layer 1"><g id="Layer_2-2" data-name="Layer 2"><g id="Layer_1-2-2" data-name="Layer 1-2"><g id="delete"><path class="cls-1" d="M63.05,12.78H49a16.3,16.3,0,0,0-31.83,0h-14a3.57,3.57,0,0,0,0,7.08H8.88l3.33,39.56A11.92,11.92,0,0,0,24,70.26H42.13A11.92,11.92,0,0,0,53.92,59.42l3.32-39.56h5.81a3.57,3.57,0,0,0,0-7.08Zm-30-5.64a9.24,9.24,0,0,1,8.52,5.7h-17A9.37,9.37,0,0,1,33.06,7.14Zm-5.31,47h-.2a2.94,2.94,0,0,1-2.94-2.75l-1.13-17A3,3,0,0,1,29.37,34L30.5,51a2.91,2.91,0,0,1-2.69,3.13Zm13.77-2.74a3,3,0,0,1-2.94,2.75h-.2a2.94,2.94,0,0,1-2.76-3.12h0l1.2-17a2.92,2.92,0,0,1,3.09-2.75h0a3,3,0,0,1,2.7,3.13Z"/></g></g></g></g></g></svg>