<svg xmlns="http://www.w3.org/2000/svg" viewBox="0 0 63.12 70.26"><defs><style>.cls-1{fill:#064E43;}</style></defs><g id="Layer_2" data-name="Layer 2"><g id="Layer_1-2" data-name="Layer 1"><g id="Layer_2-2" data-name="Layer 2"><g id="Layer_1-2-2" data-name="Layer 1-2"><g id="calendar"><path class="cls-1" d="M47,35.73H45.85a3,3,0,1,0,0,6H47a3,3,0,1,0,0-6Z"/><path class="cls-1" d="M47,52.4H45.85a3,3,0,1,0,0,6H47a3,3,0,1,0,0-6Z"/><path class="cls-1" d="M17.27,35.73H16.08a3,3,0,1,0,0,6h1.19a3,3,0,1,0,0-6Z"/><path class="cls-1" d="M17.27,52.4H16.08a3,3,0,1,0,0,6h1.19a3,3,0,1,0,0-6Z"/><path class="cls-1" d="M32.15,35.73H31a3,3,0,0,0,0,6h1.19a3,3,0,1,0,0-6Z"/><path class="cls-1" d="M32.15,52.4H31a3,3,0,0,0,0,6h1.19a3,3,0,1,0,0-6Z"/><path class="cls-1" d="M50.61,8.34H49.42V3a3,3,0,1,0-6,0V8.34H19.65V3A3,3,0,1,0,13.7,3V8.34H12.5A12.51,12.51,0,0,0,0,20.84V57.76a12.51,12.51,0,0,0,12.5,12.5H50.61a12.51,12.51,0,0,0,12.51-12.5V20.84A12.51,12.51,0,0,0,50.61,8.34Zm0,56H12.5A6.57,6.57,0,0,1,6,57.76v-28H57.16v28A6.56,6.56,0,0,1,50.61,64.31Z"/></g></g></g></g></g></svg>