<svg width="81" height="63" viewBox="0 0 81 63" fill="none" xmlns="http://www.w3.org/2000/svg">
<g clip-path="url(#clip0_207_660)">
<path fill-rule="evenodd" clip-rule="evenodd" d="M75.9895 61.4443C75.9895 61.4443 80.9999 61.4443 80.9999 56.4073C80.9999 51.3703 75.9895 36.2592 55.9478 36.2592C35.9062 36.2592 30.8958 51.3703 30.8958 56.4073C30.8958 61.4443 35.9062 61.4443 35.9062 61.4443H75.9895ZM36.0164 56.4073H75.8793C75.9027 56.4046 75.9261 56.4012 75.9494 56.3972L75.9895 56.3872C75.9795 55.0574 75.1528 51.199 72.1816 47.7235C69.4158 44.4645 64.5557 41.2962 55.9478 41.2962C47.3449 41.2962 42.4848 44.4696 39.7141 47.7235C36.7429 51.199 35.9112 55.0624 35.9062 56.3872C35.9428 56.3943 35.9796 56.401 36.0164 56.4073V56.4073ZM55.9478 26.1851C58.6055 26.1851 61.1544 25.1238 63.0336 23.2345C64.9129 21.3453 65.9687 18.7829 65.9687 16.1111C65.9687 13.4393 64.9129 10.8769 63.0336 8.98765C61.1544 7.0984 58.6055 6.03703 55.9478 6.03703C53.2901 6.03703 50.7413 7.0984 48.862 8.98765C46.9828 10.8769 45.927 13.4393 45.927 16.1111C45.927 18.7829 46.9828 21.3453 48.862 23.2345C50.7413 25.1238 53.2901 26.1851 55.9478 26.1851ZM70.9791 16.1111C70.9791 18.0955 70.5903 20.0605 69.8349 21.8938C69.0795 23.7272 67.9723 25.393 66.5765 26.7962C65.1808 28.1994 63.5237 29.3125 61.7 30.0719C59.8764 30.8313 57.9218 31.2222 55.9478 31.2222C53.9739 31.2222 52.0193 30.8313 50.1956 30.0719C48.3719 29.3125 46.7149 28.1994 45.3191 26.7962C43.9234 25.393 42.8162 23.7272 42.0608 21.8938C41.3054 20.0605 40.9166 18.0955 40.9166 16.1111C40.9166 12.1034 42.5002 8.25981 45.3191 5.42593C48.138 2.59206 51.9613 1 55.9478 1C59.9344 1 63.7576 2.59206 66.5765 5.42593C69.3954 8.25981 70.9791 12.1034 70.9791 16.1111V16.1111ZM35.5855 37.6696C33.5812 37.0351 31.5152 36.618 29.4227 36.4254C28.2469 36.313 27.0664 36.2575 25.8853 36.2592C5.84367 36.2592 0.833252 51.3703 0.833252 56.4073C0.833252 59.767 2.50172 61.4443 5.84367 61.4443H26.9676C26.2248 59.8719 25.8544 58.1478 25.8853 56.4073C25.8853 51.3199 27.7743 46.1217 31.3467 41.7798C32.5642 40.2989 33.9822 38.9137 35.5855 37.6696ZM25.4845 41.2962C17.1271 41.397 12.3823 44.5199 9.65158 47.7235C6.66037 51.2192 5.84367 55.0926 5.84367 56.4073H20.8749C20.8749 51.1436 22.4933 45.9001 25.4845 41.2962ZM8.34888 18.6296C8.34888 14.6219 9.93252 10.7783 12.7514 7.94445C15.5703 5.11057 19.3936 3.51851 23.3801 3.51851C27.3667 3.51851 31.1899 5.11057 34.0088 7.94445C36.8277 10.7783 38.4114 14.6219 38.4114 18.6296C38.4114 22.6373 36.8277 26.4809 34.0088 29.3147C31.1899 32.1486 27.3667 33.7407 23.3801 33.7407C19.3936 33.7407 15.5703 32.1486 12.7514 29.3147C9.93252 26.4809 8.34888 22.6373 8.34888 18.6296V18.6296ZM23.3801 8.55554C20.7224 8.55554 18.1736 9.61691 16.2943 11.5062C14.4151 13.3954 13.3593 15.9578 13.3593 18.6296C13.3593 21.3014 14.4151 23.8638 16.2943 25.753C18.1736 27.6423 20.7224 28.7037 23.3801 28.7037C26.0378 28.7037 28.5867 27.6423 30.4659 25.753C32.3452 23.8638 33.401 21.3014 33.401 18.6296C33.401 15.9578 32.3452 13.3954 30.4659 11.5062C28.5867 9.61691 26.0378 8.55554 23.3801 8.55554Z" fill="#064E43"/>
</g>
<defs>
<clipPath id="clip0_207_660">
<rect width="80.1667" height="62.4443" fill="white" transform="translate(0.833252)"/>
</clipPath>
</defs>
</svg>
