<svg xmlns="http://www.w3.org/2000/svg" viewBox="0 0 71.45 71.45"><defs><style>.cls-1{fill:#064E43;}</style></defs><g id="Layer_2" data-name="Layer 2"><g id="Layer_1-2" data-name="Layer 1"><g id="Layer_2-2" data-name="Layer 2"><g id="Layer_1-2-2" data-name="Layer 1-2"><g id="download"><path class="cls-1" d="M54.92,34.39a3.58,3.58,0,0,0-5.05,0L39.3,45V3.57a3.58,3.58,0,0,0-7.15,0V45L21.58,34.39a3.57,3.57,0,0,0-5,5L33.2,56.11a3.56,3.56,0,0,0,5,0L54.92,39.44A3.56,3.56,0,0,0,54.92,34.39Z"/><path class="cls-1" d="M67.88,71.45H3.57a3.57,3.57,0,1,1,0-7.14H67.88a3.57,3.57,0,1,1,0,7.14Z"/></g></g></g></g></g></svg>