<svg width="21" height="22" viewBox="0 0 21 22" fill="none" xmlns="http://www.w3.org/2000/svg">
<mask id="mask0_83_685" style="mask-type:luminance" maskUnits="userSpaceOnUse" x="0" y="0" width="21" height="22">
<path d="M0 0.5H21V21.5H0V0.5Z" fill="white"/>
<path fill-rule="evenodd" clip-rule="evenodd" d="M5.13669 10.9814C4.65054 11.711 4.39115 12.5681 4.39119 13.4449V14.2308C4.39119 14.3379 4.34864 14.4406 4.2729 14.5163C4.19717 14.5921 4.09445 14.6346 3.98734 14.6346C3.88024 14.6346 3.77752 14.5921 3.70178 14.5163C3.62604 14.4406 3.5835 14.3379 3.5835 14.2308V13.4457C3.5835 12.4091 3.8904 11.3956 4.4655 10.5331L4.55273 10.4023C4.61217 10.3132 4.70458 10.2513 4.80963 10.2304C4.91467 10.2094 5.02375 10.231 5.11286 10.2904C5.20197 10.3499 5.26382 10.4423 5.2848 10.5473C5.30578 10.6524 5.28417 10.7615 5.22473 10.8506L5.13669 10.9814Z" fill="black"/>
<path fill-rule="evenodd" clip-rule="evenodd" d="M7.41439 9.6794C6.534 9.6794 5.71258 10.1188 5.22473 10.8506L4.55273 10.4031C4.86684 9.93221 5.29226 9.5461 5.79129 9.27897C6.29033 9.01184 6.84755 8.87195 7.41358 8.8717H7.59127C7.69838 8.8717 7.8011 8.91425 7.87683 8.98999C7.95257 9.06572 7.99512 9.16844 7.99512 9.27555C7.99512 9.38266 7.95257 9.48538 7.87683 9.56111C7.8011 9.63685 7.69838 9.6794 7.59127 9.6794H7.41439ZM9.90047 10.9717C10.2801 11.5419 10.4828 12.2107 10.4828 12.8956H11.2905C11.2902 12.0517 11.0403 11.2266 10.5725 10.5242L10.4917 10.4031C10.4631 10.3573 10.4256 10.3176 10.3814 10.2866C10.3372 10.2555 10.2872 10.2336 10.2344 10.2222C10.1815 10.2108 10.127 10.2101 10.0739 10.2202C10.0208 10.2303 9.97028 10.2509 9.9253 10.2808C9.88033 10.3108 9.84183 10.3494 9.81207 10.3945C9.78231 10.4396 9.7619 10.4902 9.75205 10.5434C9.7422 10.5965 9.74311 10.651 9.75473 10.7038C9.76635 10.7566 9.78844 10.8065 9.8197 10.8506L9.90047 10.9717Z" fill="black"/>
<path fill-rule="evenodd" clip-rule="evenodd" d="M7.63086 9.6794C8.51043 9.6794 9.33186 10.1188 9.8197 10.8506L10.4917 10.4031C10.1776 9.93221 9.75217 9.5461 9.25314 9.27897C8.75411 9.01184 8.19688 8.87195 7.63086 8.8717H7.45316C7.34606 8.8717 7.24334 8.91425 7.1676 8.98999C7.09186 9.06572 7.04932 9.16844 7.04932 9.27555C7.04932 9.38266 7.09186 9.48538 7.1676 9.56111C7.24334 9.63685 7.34606 9.6794 7.45316 9.6794H7.63086Z" fill="black"/>
<path fill-rule="evenodd" clip-rule="evenodd" d="M7.4707 8.77886C7.95268 8.77886 8.41492 8.58739 8.75573 8.24658C9.09654 7.90577 9.28801 7.44353 9.28801 6.96155C9.28801 6.47957 9.09654 6.01733 8.75573 5.67652C8.41492 5.33571 7.95268 5.14424 7.4707 5.14424C6.98872 5.14424 6.52648 5.33571 6.18567 5.67652C5.84486 6.01733 5.6534 6.47957 5.6534 6.96155C5.6534 7.44353 5.84486 7.90577 6.18567 8.24658C6.52648 8.58739 6.98872 8.77886 7.4707 8.77886ZM7.4707 9.58655C8.1669 9.58655 8.83457 9.30999 9.32686 8.8177C9.81914 8.32542 10.0957 7.65774 10.0957 6.96155C10.0957 6.26535 9.81914 5.59768 9.32686 5.10539C8.83457 4.61311 8.1669 4.33655 7.4707 4.33655C6.77451 4.33655 6.10683 4.61311 5.61455 5.10539C5.12226 5.59768 4.8457 6.26535 4.8457 6.96155C4.8457 7.65774 5.12226 8.32542 5.61455 8.8177C6.10683 9.30999 6.77451 9.58655 7.4707 9.58655ZM10.9107 13.5733C10.4241 14.3031 10.1644 15.1605 10.1644 16.0376V16.8727C10.1644 16.9798 10.1218 17.0826 10.0461 17.1583C9.97034 17.234 9.86762 17.2766 9.76051 17.2766C9.6534 17.2766 9.55068 17.234 9.47495 17.1583C9.39921 17.0826 9.35666 16.9798 9.35666 16.8727V16.0376C9.35659 15.0013 9.6632 13.9882 10.2379 13.1259L10.3453 12.9643C10.3748 12.9202 10.4127 12.8823 10.4568 12.8528C10.5009 12.8233 10.5504 12.8028 10.6025 12.7925C10.6545 12.7821 10.7081 12.7821 10.7601 12.7925C10.8122 12.8029 10.8617 12.8234 10.9058 12.8529C10.9499 12.8823 10.9878 12.9202 11.0173 12.9644C11.0468 13.0085 11.0673 13.058 11.0776 13.11C11.088 13.1621 11.088 13.2157 11.0776 13.2677C11.0673 13.3198 11.0468 13.3693 11.0173 13.4134L10.9107 13.5733Z" fill="black"/>
<path fill-rule="evenodd" clip-rule="evenodd" d="M13.2623 12.2115C12.818 12.2114 12.3805 12.3211 11.9888 12.5308C11.5971 12.7404 11.2633 13.0436 11.0169 13.4133L10.3457 12.9651C10.6658 12.4849 11.0994 12.0911 11.6082 11.8187C12.117 11.5464 12.6852 11.4039 13.2623 11.4038H13.4432C13.5503 11.4038 13.653 11.4464 13.7288 11.5221C13.8045 11.5978 13.847 11.7005 13.847 11.8077C13.847 11.9148 13.8045 12.0175 13.7288 12.0932C13.653 12.169 13.5503 12.2115 13.4432 12.2115H13.2623ZM15.8364 13.5733C16.323 14.303 16.5827 15.1605 16.5827 16.0375V16.8727C16.5827 16.9798 16.6253 17.0825 16.701 17.1583C16.7767 17.234 16.8794 17.2765 16.9865 17.2765C17.0937 17.2765 17.1964 17.234 17.2721 17.1583C17.3478 17.0825 17.3904 16.9798 17.3904 16.8727V16.0375C17.3902 15.0012 17.0833 13.9881 16.5084 13.1258L16.401 12.9643C16.3715 12.9201 16.3336 12.8823 16.2895 12.8528C16.2453 12.8233 16.1958 12.8028 16.1438 12.7924C16.0917 12.7821 16.0382 12.7821 15.9861 12.7925C15.9341 12.8028 15.8846 12.8233 15.8404 12.8528C15.7963 12.8823 15.7584 12.9202 15.7289 12.9643C15.6995 13.0084 15.679 13.0579 15.6686 13.11C15.6583 13.162 15.6583 13.2156 15.6686 13.2677C15.679 13.3197 15.6995 13.3692 15.729 13.4133L15.8364 13.5733Z" fill="black"/>
<path fill-rule="evenodd" clip-rule="evenodd" d="M13.484 12.2115C13.9283 12.2114 14.3657 12.3211 14.7575 12.5308C15.1492 12.7404 15.483 13.0436 15.7294 13.4133L16.4014 12.9651C16.0813 12.4848 15.6475 12.0909 15.1385 11.8186C14.6296 11.5462 14.0613 11.4037 13.484 11.4038H13.3023C13.1952 11.4038 13.0925 11.4464 13.0167 11.5221C12.941 11.5978 12.8984 11.7005 12.8984 11.8077C12.8984 11.9148 12.941 12.0175 13.0167 12.0932C13.0925 12.169 13.1952 12.2115 13.3023 12.2115H13.484Z" fill="black"/>
<path fill-rule="evenodd" clip-rule="evenodd" d="M13.3267 11.4039C13.8086 11.4039 14.2709 11.2124 14.6117 10.8716C14.9525 10.5308 15.144 10.0685 15.144 9.58655C15.144 9.10457 14.9525 8.64233 14.6117 8.30152C14.2709 7.96071 13.8086 7.76924 13.3267 7.76924C12.8447 7.76924 12.3824 7.96071 12.0416 8.30152C11.7008 8.64233 11.5094 9.10457 11.5094 9.58655C11.5094 10.0685 11.7008 10.5308 12.0416 10.8716C12.3824 11.2124 12.8447 11.4039 13.3267 11.4039ZM13.3267 12.2115C14.0229 12.2115 14.6905 11.935 15.1828 11.4427C15.6751 10.9504 15.9517 10.2827 15.9517 9.58655C15.9517 8.89035 15.6751 8.22268 15.1828 7.73039C14.6905 7.23811 14.0229 6.96155 13.3267 6.96155C12.6305 6.96155 11.9628 7.23811 11.4705 7.73039C10.9782 8.22268 10.7017 8.89035 10.7017 9.58655C10.7017 10.2827 10.9782 10.9504 11.4705 11.4427C11.9628 11.935 12.6305 12.2115 13.3267 12.2115Z" fill="black"/>
</mask>
<g mask="url(#mask0_83_685)">
<path d="M10.5 21.5C16.299 21.5 21 16.799 21 11C21 5.20101 16.299 0.5 10.5 0.5C4.70101 0.5 0 5.20101 0 11C0 16.799 4.70101 21.5 10.5 21.5Z" fill="#064E43"/>
</g>
</svg>
