<svg xmlns="http://www.w3.org/2000/svg" viewBox="0 0 70.48 70.48"><defs><style>.cls-1{fill:#064E43;}</style></defs><g id="Layer_2" data-name="Layer 2"><g id="Layer_1-2" data-name="Layer 1"><path class="cls-1" d="M35.24,0A35.24,35.24,0,1,0,70.48,35.24,35.24,35.24,0,0,0,35.24,0ZM48.65,8.43a8.94,8.94,0,1,1-8.94,8.94A8.94,8.94,0,0,1,48.65,8.43ZM44.18,35.24a8.94,8.94,0,1,1-8.94-8.94A8.94,8.94,0,0,1,44.18,35.24ZM21.84,8.43a8.94,8.94,0,1,1-8.94,8.94A8.93,8.93,0,0,1,21.84,8.43ZM10.66,44.18a2.23,2.23,0,0,1-2.23-2.24A13.44,13.44,0,0,1,19.89,28.73a2.23,2.23,0,0,1,2.53,1.9,2.2,2.2,0,0,1-.07.92,13.52,13.52,0,0,0-.51,3.69A13.11,13.11,0,0,0,23.15,41a2.24,2.24,0,0,1-1.06,3,2.29,2.29,0,0,1-1,.22ZM46.41,62.05H24.07a2.23,2.23,0,0,1-2.23-2.23,13.41,13.41,0,1,1,26.81,0A2.23,2.23,0,0,1,46.41,62.05ZM59.82,44.18H49.36a2.24,2.24,0,0,1-2.23-2.24,2.14,2.14,0,0,1,.22-1,13.39,13.39,0,0,0,1.3-5.74,13.54,13.54,0,0,0-.53-3.69,2.23,2.23,0,0,1,1.53-2.76,2.14,2.14,0,0,1,.94-.06A13.43,13.43,0,0,1,62.05,41.94,2.23,2.23,0,0,1,59.82,44.18Z"/></g></g></svg>