<svg xmlns="http://www.w3.org/2000/svg" viewBox="0 0 69.96 69.96"><defs><style>.cls-1{fill:#064E43;}</style></defs><g id="Layer_2" data-name="Layer 2"><g id="Layer_1-2" data-name="Layer 1"><path class="cls-1" d="M35,46.64A11.66,11.66,0,1,1,46.64,35,11.66,11.66,0,0,1,35,46.64Zm-18.42,0H2.91A2.92,2.92,0,0,1,0,43.72,17.55,17.55,0,0,1,15,26.48,2.92,2.92,0,0,1,18.25,29a3.09,3.09,0,0,1-.09,1.21A17.73,17.73,0,0,0,17.49,35a17.22,17.22,0,0,0,1.71,7.49,2.92,2.92,0,0,1-1.38,3.88,2.86,2.86,0,0,1-1.25.29ZM49.55,70H20.4A2.91,2.91,0,0,1,17.49,67a17.49,17.49,0,1,1,35,0A2.92,2.92,0,0,1,49.55,70Zm2.92-46.64A11.66,11.66,0,1,1,64.13,11.66,11.66,11.66,0,0,1,52.47,23.32Zm-35,0A11.66,11.66,0,1,1,29.15,11.66,11.66,11.66,0,0,1,17.49,23.32ZM67,46.64H53.39a2.93,2.93,0,0,1-2.91-2.93,3,3,0,0,1,.29-1.24A17.35,17.35,0,0,0,52.47,35a17.75,17.75,0,0,0-.69-4.81,2.92,2.92,0,0,1,2-3.61A3,3,0,0,1,55,26.48,17.56,17.56,0,0,1,70,43.72,2.92,2.92,0,0,1,67,46.64Z"/></g></g></svg>