<svg xmlns="http://www.w3.org/2000/svg" viewBox="0 0 69.28 68.44"><defs><style>.cls-1{fill:#064E43;}</style></defs><g id="Layer_2" data-name="Layer 2"><g id="Layer_1-2" data-name="Layer 1"><path class="cls-1" d="M34.37,39.49a8.9,8.9,0,0,0-8.39,9v18a1.93,1.93,0,0,0,1.93,1.93H41.36A1.93,1.93,0,0,0,43.3,66.5V48.15A8.67,8.67,0,0,0,34.37,39.49Z"/><path class="cls-1" d="M38.5,1.48a5.78,5.78,0,0,0-7.72,0L0,29.18v30a9.24,9.24,0,0,0,9.24,9.24h9.19a1.78,1.78,0,0,0,1.78-1.77v-18c0-8,6.21-14.76,14.16-14.91a14.43,14.43,0,0,1,14.7,14.43V66.66a1.78,1.78,0,0,0,1.78,1.77H60a9.24,9.24,0,0,0,9.24-9.24h0v-30Z"/></g></g></svg>