<svg xmlns="http://www.w3.org/2000/svg" viewBox="0 0 70.76 70.76"><defs><style>.cls-1{fill:#064E43;}</style></defs><g id="Layer_2" data-name="Layer 2"><g id="Layer_1-2" data-name="Layer 1"><path class="cls-1" d="M35.38,0A35.38,35.38,0,1,0,70.76,35.38,35.39,35.39,0,0,0,35.38,0Zm7.25,53.13a8.8,8.8,0,0,1-2,1.95,9,9,0,0,1-12.56-1.95c-7-9.58-10.55-16.76-10.55-21.35a17.82,17.82,0,1,1,35.63,0C53.2,36.37,49.65,43.55,42.63,53.13Z"/><path class="cls-1" d="M35.38,38.88a7.14,7.14,0,1,1,7.15-7.14A7.14,7.14,0,0,1,35.38,38.88Z"/></g></g></svg>