<svg xmlns="http://www.w3.org/2000/svg" viewBox="0 0 70.26 67.88"><defs><style>.cls-1{fill:#3e3d37;}</style></defs><g id="Layer_2" data-name="Layer 2"><g id="Layer_1-2" data-name="Layer 1"><g id="Layer_2-2" data-name="Layer 2"><g id="Layer_1-2-2" data-name="Layer 1-2"><path id="textsms" class="cls-1" d="M48.23,0H22A22.05,22.05,0,0,0,0,22V33.94A22.07,22.07,0,0,0,16.67,55.28V64.9a3,3,0,0,0,1.46,2.56,2.9,2.9,0,0,0,1.52.42,3,3,0,0,0,1.42-.36L42.32,56h6a22.05,22.05,0,0,0,22-22V22A22.05,22.05,0,0,0,48.23,0ZM21.44,31H19.05a3,3,0,0,1,0-5.95h2.39a3,3,0,0,1,0,5.95Zm14.88,0H33.94a3,3,0,1,1,0-5.95h2.38a3,3,0,1,1,0,5.95Zm14.89,0H48.83a3,3,0,1,1,0-5.95h2.38a3,3,0,1,1,0,5.95Z"/></g></g></g></g></svg>