<svg xmlns="http://www.w3.org/2000/svg" viewBox="0 0 87.07 67.09"><defs><style>.cls-1{fill:#064E43;}</style></defs><g id="Layer_2" data-name="Layer 2"><g id="Layer_1-2" data-name="Layer 1"><g id="Layer_2-2" data-name="Layer 2"><g id="Layer_1-2-2" data-name="Layer 1-2"><g id="cached"><path class="cls-1" d="M85.75,30.86,74.27,18.56a4.34,4.34,0,0,0-6.14-.26l0,0L55.78,29.82a4.39,4.39,0,1,0,6,6.43l6.58-6.13A26.82,26.82,0,0,1,31.22,56.31a4.35,4.35,0,0,0-3.33,8A35.46,35.46,0,0,0,76.94,34.15l2.46,2.64A4.35,4.35,0,0,0,86,31.18C86,31.07,85.85,31,85.75,30.86Z"/><path class="cls-1" d="M59,2.75a35.47,35.47,0,0,0-49,30.1L7.48,30.21a4.34,4.34,0,0,0-6.34,5.94L12.62,48.46a4.3,4.3,0,0,0,3,1.37h.16a4.29,4.29,0,0,0,2.9-1.16L31,37.2a4.35,4.35,0,0,0-5.93-6.37L18.51,37A26.81,26.81,0,0,1,55.66,10.76,4.34,4.34,0,1,0,59.47,3,2.55,2.55,0,0,0,59,2.75Z"/></g></g></g></g></g></svg>