<svg xmlns="http://www.w3.org/2000/svg" viewBox="0 0 65.72 73.04"><defs><style>.cls-1{fill:#3e3d37;}</style></defs><g id="Layer_2" data-name="Layer 2"><g id="Layer_1-2" data-name="Layer 1"><path class="cls-1" d="M1.23,54.78A9.13,9.13,0,0,0,13.7,58.13h0l1.35-.78a27.53,27.53,0,0,0,8.67,5v1.56a9.13,9.13,0,0,0,18.26,0V62.35a27.37,27.37,0,0,0,8.67-5l1.36.78A9.13,9.13,0,0,0,61.15,42.3h0l-1.35-.78a28.06,28.06,0,0,0,0-10l1.35-.78A9.14,9.14,0,0,0,52,14.9l-1.36.79a27.34,27.34,0,0,0-8.67-5V9.13a9.13,9.13,0,0,0-18.26,0v1.56a27.37,27.37,0,0,0-8.67,5l-1.36-.79A9.14,9.14,0,1,0,4.57,30.74h0l1.35.78a27.61,27.61,0,0,0,0,10l-1.35.78A9.14,9.14,0,0,0,1.23,54.78ZM32.86,24.35A12.17,12.17,0,1,1,20.69,36.52,12.17,12.17,0,0,1,32.86,24.35Z"/></g></g></svg>